<svg width="174" height="30" viewBox="0 0 174 30" fill="none" xmlns="http://www.w3.org/2000/svg">
<path d="M14.1033 1.81698C14.4701 1.07374 15.5299 1.07374 15.8967 1.81699L19.1757 8.46093C19.3214 8.75608 19.6029 8.96064 19.9287 9.00797L27.2607 10.0734C28.0809 10.1926 28.4084 11.2005 27.8149 11.7791L22.5094 16.9507C22.2737 17.1804 22.1662 17.5114 22.2218 17.8358L23.4743 25.1382C23.6144 25.9551 22.7569 26.5781 22.0233 26.1924L15.4653 22.7446C15.174 22.5915 14.826 22.5915 14.5347 22.7446L7.9767 26.1924C7.24307 26.5781 6.38563 25.9551 6.52574 25.1382L7.7782 17.8358C7.83384 17.5114 7.72629 17.1804 7.49061 16.9507L2.1851 11.7791C1.59159 11.2005 1.91909 10.1926 2.73931 10.0734L10.0713 9.00797C10.3971 8.96064 10.6786 8.75607 10.8243 8.46093L14.1033 1.81698Z" fill="#FCC141"/>
<path d="M50.1033 1.81698C50.4701 1.07374 51.5299 1.07374 51.8967 1.81699L55.1757 8.46093C55.3214 8.75608 55.6029 8.96064 55.9287 9.00797L63.2607 10.0734C64.0809 10.1926 64.4084 11.2005 63.8149 11.7791L58.5094 16.9507C58.2737 17.1804 58.1662 17.5114 58.2218 17.8358L59.4743 25.1382C59.6144 25.9551 58.7569 26.5781 58.0233 26.1924L51.4653 22.7446C51.174 22.5915 50.826 22.5915 50.5347 22.7446L43.9767 26.1924C43.2431 26.5781 42.3856 25.9551 42.5257 25.1382L43.7782 17.8358C43.8338 17.5114 43.7263 17.1804 43.4906 16.9507L38.1851 11.7791C37.5916 11.2005 37.9191 10.1926 38.7393 10.0734L46.0713 9.00797C46.3971 8.96064 46.6786 8.75607 46.8243 8.46093L50.1033 1.81698Z" fill="#FCC141"/>
<path d="M86.1033 1.81698C86.4701 1.07374 87.5299 1.07374 87.8967 1.81699L91.1757 8.46093C91.3214 8.75608 91.6029 8.96064 91.9287 9.00797L99.2607 10.0734C100.081 10.1926 100.408 11.2005 99.8149 11.7791L94.5094 16.9507C94.2737 17.1804 94.1662 17.5114 94.2218 17.8358L95.4743 25.1382C95.6144 25.9551 94.7569 26.5781 94.0233 26.1924L87.4653 22.7446C87.174 22.5915 86.826 22.5915 86.5347 22.7446L79.9767 26.1924C79.2431 26.5781 78.3856 25.9551 78.5257 25.1382L79.7782 17.8358C79.8338 17.5114 79.7263 17.1804 79.4906 16.9507L74.1851 11.7791C73.5916 11.2005 73.9191 10.1926 74.7393 10.0734L82.0713 9.00797C82.3971 8.96064 82.6786 8.75607 82.8243 8.46093L86.1033 1.81698Z" fill="#FCC141"/>
<path d="M122.103 1.81698C122.47 1.07374 123.53 1.07374 123.897 1.81699L127.176 8.46093C127.321 8.75608 127.603 8.96064 127.929 9.00797L135.261 10.0734C136.081 10.1926 136.408 11.2005 135.815 11.7791L130.509 16.9507C130.274 17.1804 130.166 17.5114 130.222 17.8358L131.474 25.1382C131.614 25.9551 130.757 26.5781 130.023 26.1924L123.465 22.7446C123.174 22.5915 122.826 22.5915 122.535 22.7446L115.977 26.1924C115.243 26.5781 114.386 25.9551 114.526 25.1382L115.778 17.8358C115.834 17.5114 115.726 17.1804 115.491 16.9507L110.185 11.7791C109.592 11.2005 109.919 10.1926 110.739 10.0734L118.071 9.00797C118.397 8.96064 118.679 8.75607 118.824 8.46093L122.103 1.81698Z" fill="#FCC141"/>
<path d="M159 2.25955L162.279 8.9035C162.57 9.49378 163.133 9.90292 163.785 9.99758L171.117 11.063L165.811 16.2346C165.34 16.694 165.125 17.356 165.236 18.0048L166.489 25.3072L159.931 21.8595C159.348 21.5532 158.652 21.5532 158.069 21.8595L151.511 25.3072L152.764 18.0048C152.875 17.3561 152.66 16.694 152.189 16.2346L146.883 11.063L154.215 9.99758C154.867 9.90292 155.43 9.49378 155.721 8.9035L159 2.25955Z" stroke="#FCC141" stroke-width="2"/>
<mask id="mask0_2_3" style="mask-type:alpha" maskUnits="userSpaceOnUse" x="145" y="1" width="28" height="26">
<path d="M158.103 1.81698C158.47 1.07374 159.53 1.07374 159.897 1.81699L163.176 8.46093C163.321 8.75608 163.603 8.96064 163.929 9.00797L171.261 10.0734C172.081 10.1926 172.408 11.2005 171.815 11.7791L166.509 16.9507C166.274 17.1804 166.166 17.5114 166.222 17.8358L167.474 25.1382C167.614 25.9551 166.757 26.5781 166.023 26.1924L159.465 22.7446C159.174 22.5915 158.826 22.5915 158.535 22.7446L151.977 26.1924C151.243 26.5781 150.386 25.9551 150.526 25.1382L151.778 17.8358C151.834 17.5114 151.726 17.1804 151.491 16.9507L146.185 11.7791C145.592 11.2005 145.919 10.1926 146.739 10.0734L154.071 9.00797C154.397 8.96064 154.679 8.75607 154.824 8.46093L158.103 1.81698Z" fill="#FCC141"/>
</mask>
<g mask="url(#mask0_2_3)">
<rect x="144" width="15" height="30" fill="#FCC141"/>
</g>
</svg>
